<?xml version="1.0" encoding="utf-8"?>
<!-- Generator: Adobe Illustrator 26.0.0, SVG Export Plug-In . SVG Version: 6.00 Build 0)  -->
<svg version="1.1" id="Capa_1" xmlns="http://www.w3.org/2000/svg" xmlns:xlink="http://www.w3.org/1999/xlink" x="0px" y="0px"
	 viewBox="0 0 261.5 220.6" style="enable-background:new 0 0 261.5 220.6;" xml:space="preserve">
<style type="text/css">
	.st0{fill:#FFFFFF;}
	.st1{fill:url(#SVGID_1_);}
	.st2{fill:url(#SVGID_00000145739365186703619390000000532904361917172876_);}
	.st3{fill:url(#SVGID_00000046305561991805260250000015402202864300805788_);}
	.st4{fill:url(#SVGID_00000123417834140108628830000002129285291944294292_);}
	.st5{fill:url(#SVGID_00000155114378386832800560000000136265756087187337_);}
	.st6{fill:url(#SVGID_00000029011308693949708990000004979302684399775402_);}
	.st7{fill:url(#SVGID_00000162313340265486709880000011741290259799539083_);}
	.st8{fill:url(#SVGID_00000163046265578703504400000004980240054805005207_);}
	.st9{fill:url(#SVGID_00000144310184002594665750000004458494425194048675_);}
</style>
<g>
	<path class="st0" d="M5.3,188.1v-1.8c1.2,0,2.1-0.3,2.5-0.9c0.5-0.6,0.7-1.5,0.8-2.5c0.1-1.1,0.1-2.3,0.1-3.8v-13.5
		c0-0.6,0-1.3,0-1.9c0-0.6,0.1-1.3,0.2-2c-0.7,0-1.4,0.1-2.1,0.1c-0.7,0-1.4,0.1-2.1,0.1v-2.5c1.7,0,3-0.1,3.9-0.2
		c0.9-0.2,1.5-0.4,2-0.6c0.4-0.2,0.8-0.5,1.1-0.8h1.7c0.1,0.4,0.1,0.8,0.1,1.4c0,0.5,0,1.1,0.1,1.8c1.2-1,2.5-1.9,4.1-2.5
		c1.5-0.7,3.1-1,4.6-1c2,0,3.6,0.4,5,1.1c1.3,0.7,2.4,1.7,3.1,2.9c1.3-1.1,2.9-2,4.6-2.8c1.8-0.8,3.5-1.2,5.2-1.2c3.4,0,6,1,7.6,3.1
		c1.6,2.1,2.4,5.5,2.3,10.2l-0.1,11c0,0.8,0,1.5,0,2.1c0,0.6-0.1,1.3-0.2,1.9c0.6,0,1.3-0.1,1.9-0.1c0.6,0,1.2,0,1.9-0.1v2.4H41.6
		v-1.8c1.2,0,2.1-0.3,2.5-0.9c0.5-0.6,0.7-1.5,0.8-2.5c0.1-1.1,0.1-2.3,0.1-3.8v-8.3c0-3.4-0.5-5.9-1.6-7.6
		c-1.1-1.7-2.8-2.5-5.1-2.5c-1.2,0-2.4,0.3-3.7,0.8c-1.2,0.6-2.3,1.2-3.2,2.1c0.2,0.6,0.3,1.3,0.4,2c0.1,0.7,0.1,1.5,0.1,2.3
		c0,2.3-0.1,4.6-0.1,6.9s0,4.7-0.1,7c0,0.8,0,1.5,0,2.1c0,0.6-0.1,1.3-0.2,1.9c0.6,0,1.3-0.1,1.9-0.1c0.6,0,1.2,0,1.9-0.1v2.4H23.4
		v-1.8c1.2,0,2.1-0.3,2.5-0.9c0.5-0.6,0.7-1.5,0.8-2.5c0.1-1.1,0.1-2.3,0.1-3.8l0.1-8.3c0-3.4-0.5-6-1.5-7.7s-2.7-2.6-5-2.5
		c-1.2,0-2.4,0.3-3.6,0.8s-2.2,1.2-3,2c0,0.5,0,1,0,1.5c0,0.5,0,1.1,0,1.7v15.2c0,0.8,0,1.5,0,2.1c0,0.6-0.1,1.3-0.2,1.9
		c0.6,0,1.3-0.1,1.9-0.1c0.6,0,1.2,0,1.9-0.1v2.4H5.3z"/>
	<path class="st0" d="M76.2,188.1c-0.1-0.7-0.2-1.3-0.2-1.8c0-0.5-0.1-1-0.2-1.6c-1.3,1.3-2.8,2.4-4.4,3.2c-1.6,0.8-3.2,1.2-4.9,1.2
		c-3,0-5.2-0.7-6.7-2c-1.5-1.4-2.2-3-2.2-5c0-1.8,0.6-3.4,1.7-4.7s2.6-2.4,4.4-3.3c1.8-0.8,3.8-1.5,5.9-1.9c2.1-0.4,4.2-0.6,6.1-0.6
		v-3.7c0-1.4-0.1-2.7-0.4-3.9c-0.2-1.2-0.8-2.2-1.5-3c-0.8-0.8-2.1-1.2-3.8-1.2c-1.1,0-2.3,0.2-3.5,0.7c-1.2,0.5-2.1,1.3-2.6,2.4
		c0.3,0.3,0.5,0.7,0.6,1.1s0.1,0.8,0.1,1.2c0,0.5-0.2,1-0.6,1.6c-0.4,0.6-1.1,0.9-2.1,0.9c-0.8,0-1.5-0.3-1.9-0.9s-0.7-1.3-0.7-2
		c0-1.3,0.5-2.5,1.5-3.6c1-1.1,2.4-1.9,4.2-2.5c1.8-0.6,3.8-0.9,6-0.9c3.3,0,5.8,0.9,7.3,2.6c1.6,1.8,2.3,4.5,2.3,8.3
		c0,1.5,0,2.9,0,4.4s0,3,0,4.4c0,1.5,0,3,0,4.5c0,0.6,0,1.3-0.1,1.9c0,0.6-0.1,1.3-0.2,2.1c0.7,0,1.4-0.1,2.1-0.1
		c0.7,0,1.4-0.1,2.1-0.1v2.5H76.2z M75.7,173.6c-1.3,0-2.8,0.2-4.2,0.5c-1.5,0.3-2.8,0.7-4.1,1.3c-1.2,0.6-2.2,1.4-3,2.3
		c-0.8,1-1.1,2.1-1.1,3.5c0.1,1.5,0.6,2.6,1.5,3.3c0.9,0.7,1.9,1.1,3.2,1.1c1.6,0,3-0.3,4.2-0.9c1.2-0.6,2.4-1.5,3.6-2.6
		c0-0.4-0.1-0.9-0.1-1.4s0-1,0-1.6c0-0.2,0-0.8,0-1.9C75.7,176.2,75.7,174.9,75.7,173.6z"/>
	<path class="st0" d="M103,204.1c-3.6,0-6.4-0.4-8.6-1.2c-2.2-0.8-3.8-1.8-4.7-3c-1-1.2-1.5-2.5-1.5-3.8c0-1.2,0.3-2.3,0.9-3.2
		s1.3-1.7,2.1-2.4c0.8-0.7,1.7-1.2,2.5-1.5c-1.3-0.4-2.3-1-3-1.7c-0.7-0.7-1.1-1.7-1.1-2.9c0-1.4,0.6-2.7,1.7-3.9
		c1.1-1.2,2.5-1.9,4.3-2.2c-1.8-0.9-3.3-2.1-4.4-3.6c-1.1-1.5-1.6-3.3-1.6-5.4c0-2.4,0.6-4.4,1.8-6.2c1.2-1.8,2.8-3.1,4.7-4.1
		c1.9-1,3.9-1.5,6-1.5c1.3,0,2.6,0.2,3.9,0.6c1.3,0.4,2.5,0.9,3.6,1.6c0.4-1.1,1-2.1,1.7-3c0.7-0.9,1.6-1.5,2.5-2
		c0.9-0.5,1.9-0.7,3-0.7c1,0,1.8,0.3,2.3,0.8c0.5,0.5,0.8,1.3,0.8,2.2c0,0.3-0.1,0.6-0.2,1c-0.2,0.4-0.4,0.7-0.8,1
		c-0.4,0.3-0.9,0.4-1.5,0.4c-0.7,0-1.2-0.2-1.7-0.6c-0.4-0.4-0.7-0.9-0.8-1.5c-1,0.2-1.8,0.6-2.3,1.4c-0.6,0.8-0.9,1.6-1.1,2.5
		c0.9,0.9,1.7,1.9,2.3,3.1s0.9,2.5,0.9,3.9c0,2.2-0.6,4.2-1.7,5.9c-1.2,1.7-2.7,3.1-4.6,4.1c-1.9,1-3.9,1.5-6.2,1.5
		c-0.8,0-1.4,0-2-0.1s-1.2-0.1-2-0.1c-1.5,0-2.6,0.4-3.6,1.1c-0.9,0.7-1.2,1.6-0.9,2.5c0.3,0.9,1.3,1.5,2.9,1.8
		c1.6,0.3,3.8,0.4,6.5,0.6c3,0.1,5.6,0.5,7.8,1.1c2.2,0.6,3.8,1.5,5,2.8c1.2,1.2,1.7,2.9,1.7,5.1c0,1.6-0.4,3-1.3,4.2
		c-0.8,1.2-2,2.3-3.4,3.1c-1.4,0.8-3,1.5-4.7,1.9C106.5,203.9,104.8,204.1,103,204.1z M103,201.8c3.4,0,6-0.6,7.9-1.9
		c1.9-1.3,2.8-2.7,2.8-4.4c0-1.5-0.5-2.6-1.5-3.3s-2.3-1.3-4-1.6c-1.7-0.3-3.7-0.5-5.9-0.5c-1.1,0-2.1-0.1-3.1-0.1
		c-1-0.1-2-0.2-3-0.3c-1.1,0.7-1.9,1.6-2.5,2.6c-0.6,1-0.9,2.1-0.9,3.3c0,1.9,0.9,3.5,2.8,4.6C97.5,201.2,99.9,201.8,103,201.8z
		 M102.2,177.5c1.5,0,2.7-0.4,3.6-1.1c1-0.7,1.7-1.7,2.2-2.9c0.5-1.2,0.7-2.6,0.7-4.1c0-1.7-0.3-3.4-0.8-4.9
		c-0.5-1.5-1.3-2.7-2.3-3.6c-1-0.9-2.3-1.4-3.8-1.4c-2.1,0-3.8,0.8-4.9,2.4s-1.7,3.6-1.7,6c0,1.9,0.3,3.6,0.8,5
		c0.6,1.4,1.4,2.6,2.4,3.4C99.5,177.1,100.8,177.5,102.2,177.5z"/>
	<path class="st0" d="M121.5,188.1v-1.8c1.2,0,2.1-0.3,2.5-0.9c0.5-0.6,0.7-1.5,0.8-2.5c0.1-1.1,0.1-2.3,0.1-3.8l0.1-13.5
		c0-0.6,0-1.3,0-1.9c0-0.6,0.1-1.3,0.2-2c-0.7,0-1.4,0.1-2.1,0.1c-0.7,0-1.4,0.1-2.1,0.1v-2.5c1.7,0,3-0.1,3.9-0.2
		c0.9-0.2,1.5-0.4,2-0.6c0.4-0.2,0.8-0.5,1.1-0.8h1.7c0,0.3,0.1,0.6,0.1,0.9c0,0.4,0,0.8,0.1,1.2c0,0.4,0.1,0.9,0.1,1.5
		c0.9-0.7,1.8-1.4,2.9-2s2.2-1.1,3.3-1.4c1.2-0.4,2.3-0.5,3.5-0.5c3.4,0,5.9,1.1,7.5,3.2c1.6,2.2,2.4,5.5,2.4,10v11
		c0,0.8,0,1.5,0,2.1c0,0.6-0.1,1.3-0.2,1.9c0.6,0,1.3-0.1,1.9-0.1c0.6,0,1.2,0,1.9-0.1v2.4H141v-1.8c1.2,0,2.1-0.3,2.5-0.9
		c0.5-0.6,0.7-1.5,0.8-2.5c0.1-1.1,0.1-2.3,0.1-3.8v-8.3c0-3.4-0.6-6-1.7-7.7c-1.1-1.7-2.8-2.6-5.1-2.5c-1.4,0-2.8,0.4-4.2,1.1
		c-1.4,0.7-2.5,1.6-3.4,2.7c0,0.3,0.1,0.7,0.1,1.1s0,0.8,0,1.2l-0.1,15.1c0,0.8,0,1.5,0,2.1c0,0.6-0.1,1.3-0.2,1.9
		c0.6,0,1.3-0.1,1.9-0.1c0.6,0,1.2,0,1.9-0.1v2.4H121.5z"/>
	<path class="st0" d="M172.1,189c-2.8,0-5.3-0.6-7.5-1.9s-4-3.1-5.4-5.3c-1.3-2.3-2-4.9-2-7.8c0-3.1,0.7-5.9,2-8.4
		c1.3-2.5,3.1-4.5,5.3-5.9c2.2-1.4,4.8-2.2,7.6-2.2c2.8,0,5.3,0.7,7.5,2c2.2,1.3,4,3.1,5.4,5.4c1.3,2.2,2,4.8,2,7.7
		c0,3-0.7,5.8-2,8.3c-1.3,2.5-3.1,4.5-5.4,6S174.9,189,172.1,189z M172.6,186.6c2.1,0,3.8-0.6,5-1.8s2.1-2.7,2.6-4.6
		c0.5-1.9,0.8-3.9,0.8-6c0-1.8-0.2-3.5-0.5-5.2c-0.3-1.7-0.9-3.3-1.6-4.7c-0.7-1.4-1.6-2.5-2.8-3.3c-1.1-0.8-2.5-1.2-4.1-1.2
		c-2.1,0-3.7,0.6-5,1.8s-2.3,2.7-2.9,4.6c-0.6,1.9-0.9,3.9-0.9,6.1c0,2.4,0.3,4.8,1,7c0.7,2.2,1.7,4,3.1,5.4
		C168.8,186,170.5,186.6,172.6,186.6z"/>
	<path class="st0" d="M191.5,186.3c1.2,0,2.1-0.3,2.5-0.9c0.5-0.6,0.7-1.5,0.8-2.5c0.1-1.1,0.1-2.3,0.1-3.8v-28c0-0.6,0-1.2,0-1.8
		c0-0.6,0.1-1.3,0.1-2c-0.7,0-1.4,0.1-2.1,0.1s-1.4,0.1-2.1,0.1V145c1.7,0,3.1-0.1,4.1-0.2c1-0.2,1.7-0.4,2.2-0.6
		c0.5-0.2,0.9-0.5,1.2-0.8h1.7l0.1,38.4c0,0.8,0,1.5-0.1,2.1c0,0.6-0.1,1.3-0.2,1.9c0.6,0,1.3-0.1,1.9-0.1c0.6,0,1.2,0,1.9-0.1v2.4
		h-12.1V186.3z"/>
	<path class="st0" d="M208.2,186.3c1.2,0,2.1-0.3,2.5-0.9c0.5-0.6,0.7-1.5,0.8-2.5c0.1-1.1,0.1-2.3,0.1-3.8v-13.5
		c0-0.6,0-1.2,0.1-1.8c0-0.6,0.1-1.3,0.2-2c-0.7,0-1.4,0.1-2.1,0.1c-0.7,0-1.4,0.1-2.1,0.1v-2.5c1.7,0,3.1-0.1,4-0.2
		c0.9-0.2,1.7-0.4,2.2-0.6c0.5-0.2,0.9-0.5,1.2-0.8h1.7v23.9c0,0.8,0,1.5,0,2.1c0,0.6-0.1,1.3-0.2,1.9c0.6,0,1.3-0.1,1.9-0.1
		c0.6,0,1.2,0,1.9-0.1v2.4h-12.1V186.3z M213.9,152c-0.8,0-1.6-0.3-2.2-1c-0.6-0.7-0.9-1.5-0.9-2.5c0-1,0.3-1.8,1-2.5
		c0.7-0.7,1.4-1,2.2-1c0.9,0,1.7,0.3,2.3,1c0.6,0.7,0.9,1.5,0.9,2.5c0,1-0.3,1.8-1,2.5S214.8,152,213.9,152z"/>
	<path class="st0" d="M242.8,188.1c-0.1-0.7-0.2-1.3-0.2-1.8c0-0.5-0.1-1-0.2-1.6c-1.3,1.3-2.8,2.4-4.4,3.2
		c-1.6,0.8-3.2,1.2-4.9,1.2c-3,0-5.2-0.7-6.7-2c-1.5-1.4-2.2-3-2.2-5c0-1.8,0.6-3.4,1.7-4.7s2.6-2.4,4.4-3.3
		c1.8-0.8,3.8-1.5,5.9-1.9c2.1-0.4,4.2-0.6,6.1-0.6v-3.7c0-1.4-0.1-2.7-0.4-3.9c-0.2-1.2-0.8-2.2-1.5-3c-0.8-0.8-2.1-1.2-3.8-1.2
		c-1.1,0-2.3,0.2-3.5,0.7c-1.2,0.5-2.1,1.3-2.6,2.4c0.3,0.3,0.5,0.7,0.6,1.1s0.1,0.8,0.1,1.2c0,0.5-0.2,1-0.6,1.6
		c-0.4,0.6-1.1,0.9-2.1,0.9c-0.8,0-1.5-0.3-1.9-0.9s-0.7-1.3-0.7-2c0-1.3,0.5-2.5,1.5-3.6c1-1.1,2.4-1.9,4.2-2.5
		c1.8-0.6,3.8-0.9,6-0.9c3.3,0,5.8,0.9,7.3,2.6c1.6,1.8,2.3,4.5,2.3,8.3c0,1.5,0,2.9,0,4.4s0,3,0,4.4c0,1.5,0,3,0,4.5
		c0,0.6,0,1.3-0.1,1.9c0,0.6-0.1,1.3-0.2,2.1c0.7,0,1.4-0.1,2.1-0.1c0.7,0,1.4-0.1,2.1-0.1v2.5H242.8z M242.3,173.6
		c-1.3,0-2.8,0.2-4.2,0.5c-1.5,0.3-2.8,0.7-4.1,1.3c-1.2,0.6-2.2,1.4-3,2.3c-0.8,1-1.1,2.1-1.1,3.5c0.1,1.5,0.6,2.6,1.5,3.3
		c0.9,0.7,1.9,1.1,3.2,1.1c1.6,0,3-0.3,4.2-0.9c1.2-0.6,2.4-1.5,3.6-2.6c0-0.4-0.1-0.9-0.1-1.4s0-1,0-1.6c0-0.2,0-0.8,0-1.9
		C242.3,176.2,242.3,174.9,242.3,173.6z"/>
</g>
<g>
	<g>
		<path class="st0" d="M57,10.8"/>
	</g>
	<g>
		<linearGradient id="SVGID_1_" gradientUnits="userSpaceOnUse" x1="51.7787" y1="138.4133" x2="51.7787" y2="50.1582">
			<stop  offset="0" style="stop-color:#FFFFFF"/>
			<stop  offset="1" style="stop-color:#FFFFFF;stop-opacity:0.5"/>
		</linearGradient>
		<polygon class="st1" points="58.5,132.3 45,132.3 45,129.3 55.5,129.3 55.5,10.8 58.5,10.8 		"/>
	</g>
	<g>
		
			<linearGradient id="SVGID_00000047742523799934365240000000347101514591793066_" gradientUnits="userSpaceOnUse" x1="69.0287" y1="138.4133" x2="69.0287" y2="50.1582">
			<stop  offset="0" style="stop-color:#FFFFFF"/>
			<stop  offset="1" style="stop-color:#FFFFFF;stop-opacity:0.5"/>
		</linearGradient>
		<rect x="67.5" y="40.8" style="fill:url(#SVGID_00000047742523799934365240000000347101514591793066_);" width="3" height="90"/>
	</g>
	<g>
		
			<linearGradient id="SVGID_00000183215615440745016890000016733096907093944211_" gradientUnits="userSpaceOnUse" x1="86.2787" y1="138.4133" x2="86.2787" y2="50.1582">
			<stop  offset="0" style="stop-color:#FFFFFF"/>
			<stop  offset="1" style="stop-color:#FFFFFF;stop-opacity:0.5"/>
		</linearGradient>
		<polygon style="fill:url(#SVGID_00000183215615440745016890000016733096907093944211_);" points="93,132.3 79.5,132.3 79.5,55.8 
			82.5,55.8 82.5,129.3 93,129.3 		"/>
	</g>
	<g>
		
			<linearGradient id="SVGID_00000097485718237637074860000013241853627313092745_" gradientUnits="userSpaceOnUse" x1="206.2787" y1="138.4133" x2="206.2787" y2="50.1582">
			<stop  offset="0" style="stop-color:#FFFFFF"/>
			<stop  offset="1" style="stop-color:#FFFFFF;stop-opacity:0.5"/>
		</linearGradient>
		<polygon style="fill:url(#SVGID_00000097485718237637074860000013241853627313092745_);" points="213,132.3 199.5,132.3 
			199.5,10.8 202.5,10.8 202.5,129.3 213,129.3 		"/>
	</g>
	<g>
		
			<linearGradient id="SVGID_00000122690714149982245130000003970676156598298006_" gradientUnits="userSpaceOnUse" x1="189.0287" y1="138.4133" x2="189.0287" y2="50.1582">
			<stop  offset="0" style="stop-color:#FFFFFF"/>
			<stop  offset="1" style="stop-color:#FFFFFF;stop-opacity:0.5"/>
		</linearGradient>
		<rect x="187.5" y="40.8" style="fill:url(#SVGID_00000122690714149982245130000003970676156598298006_);" width="3" height="90"/>
	</g>
	<g>
		
			<linearGradient id="SVGID_00000118377959283815887390000012104197571921446809_" gradientUnits="userSpaceOnUse" x1="171.7787" y1="138.4133" x2="171.7787" y2="50.1582">
			<stop  offset="0" style="stop-color:#FFFFFF"/>
			<stop  offset="1" style="stop-color:#FFFFFF;stop-opacity:0.5"/>
		</linearGradient>
		<polygon style="fill:url(#SVGID_00000118377959283815887390000012104197571921446809_);" points="178.5,132.3 165,132.3 
			165,129.3 175.5,129.3 175.5,55.8 178.5,55.8 		"/>
	</g>
	<g>
		
			<linearGradient id="SVGID_00000086673547276179231040000008868117533618279060_" gradientUnits="userSpaceOnUse" x1="77.8265" y1="47.1866" x2="213.0287" y2="47.1866">
			<stop  offset="0" style="stop-color:#FFFFFF"/>
			<stop  offset="0.514" style="stop-color:#FFFFFF;stop-opacity:0.5"/>
			<stop  offset="1" style="stop-color:#FFFFFF;stop-opacity:0.9455"/>
		</linearGradient>
		<polygon style="fill:url(#SVGID_00000086673547276179231040000008868117533618279060_);" points="141,85.1 77.8,9.3 93,9.3 
			93,12.3 84.2,12.3 141,80.4 200.3,9.3 213,9.3 213,12.3 201.7,12.3 		"/>
	</g>
	<g>
		
			<linearGradient id="SVGID_00000072982742985943281000000011762167699585652898_" gradientUnits="userSpaceOnUse" x1="67.8763" y1="47.4566" x2="190.181" y2="47.4566">
			<stop  offset="0" style="stop-color:#FFFFFF"/>
			<stop  offset="0.514" style="stop-color:#FFFFFF;stop-opacity:0.5"/>
			<stop  offset="1" style="stop-color:#FFFFFF;stop-opacity:0.9455"/>
		</linearGradient>
		<polygon style="fill:url(#SVGID_00000072982742985943281000000011762167699585652898_);" points="129,85.1 67.9,11.7 70.2,9.8 
			129,80.4 187.9,9.8 190.2,11.7 		"/>
	</g>
	<g>
		
			<linearGradient id="SVGID_00000041296586513650050230000009919142917080465309_" gradientUnits="userSpaceOnUse" x1="45.0287" y1="47.1866" x2="180.2308" y2="47.1866">
			<stop  offset="0" style="stop-color:#FFFFFF"/>
			<stop  offset="0.514" style="stop-color:#FFFFFF;stop-opacity:0.5"/>
			<stop  offset="1" style="stop-color:#FFFFFF;stop-opacity:0.9455"/>
		</linearGradient>
		<polygon style="fill:url(#SVGID_00000041296586513650050230000009919142917080465309_);" points="117,85.1 56.3,12.3 45,12.3 
			45,9.3 57.7,9.3 117,80.4 173.8,12.3 162,12.3 162,9.3 180.2,9.3 		"/>
	</g>
</g>
<g>
	<path class="st0" d="M122.6,204.1v-0.7c0.5,0,0.8-0.1,1-0.3c0.2-0.2,0.3-0.5,0.3-0.8c0-0.4,0-0.8,0-1.2v-8.5c0-0.3,0-0.5,0-0.8
		c0-0.2,0-0.5,0-0.7c-0.2,0-0.5,0-0.7,0c-0.2,0-0.5,0-0.7,0v-0.9h4.3v0.7c-0.5,0-0.8,0.1-1,0.3c-0.2,0.2-0.3,0.5-0.3,0.8
		s0,0.8,0,1.2v3.3h6.9v-4.1c0-0.3,0-0.5,0-0.8c0-0.2,0-0.5,0-0.7c-0.2,0-0.5,0-0.7,0c-0.2,0-0.5,0-0.7,0v-0.9h4.3v0.7
		c-0.5,0-0.8,0.1-1,0.3c-0.2,0.2-0.3,0.5-0.3,0.8s0,0.8,0,1.2v8.4c0,0.4,0,0.7,0,0.9c0,0.3,0,0.5,0,0.6c0.2,0,0.5,0,0.7,0
		c0.2,0,0.5,0,0.7,0v0.9h-4.3v-0.7c0.5,0,0.8-0.1,1-0.3c0.2-0.2,0.3-0.5,0.3-0.8c0-0.4,0-0.8,0-1.2v-3.6l-6.9,0.1v4.2
		c0,0.4,0,0.7,0,0.9c0,0.3,0,0.5,0,0.6c0.2,0,0.5,0,0.7,0c0.2,0,0.5,0,0.7,0v0.9H122.6z"/>
	<path class="st0" d="M142.6,204.4c-0.9,0-1.7-0.2-2.4-0.6c-0.7-0.4-1.3-1-1.7-1.8c-0.4-0.8-0.6-1.6-0.6-2.6c0-1,0.2-2,0.6-2.8
		c0.4-0.8,1-1.5,1.7-2c0.7-0.5,1.5-0.7,2.5-0.7c0.9,0,1.7,0.2,2.4,0.7c0.7,0.4,1.3,1,1.7,1.8s0.7,1.6,0.7,2.6c0,1-0.2,1.9-0.6,2.8
		c-0.4,0.8-1,1.5-1.7,2C144.4,204.1,143.6,204.4,142.6,204.4z M142.8,203.6c0.7,0,1.2-0.2,1.6-0.6s0.7-0.9,0.9-1.5
		c0.2-0.6,0.3-1.3,0.3-2c0-0.6-0.1-1.2-0.2-1.7c-0.1-0.6-0.3-1.1-0.5-1.6s-0.5-0.8-0.9-1.1c-0.4-0.3-0.8-0.4-1.3-0.4
		c-0.7,0-1.2,0.2-1.6,0.6c-0.4,0.4-0.7,0.9-0.9,1.5c-0.2,0.6-0.3,1.3-0.3,2c0,0.8,0.1,1.6,0.3,2.3c0.2,0.7,0.6,1.3,1,1.8
		C141.6,203.4,142.1,203.6,142.8,203.6z"/>
	<path class="st0" d="M149.7,204.1v-0.6c0.4,0,0.7-0.1,0.8-0.3s0.2-0.5,0.3-0.8c0-0.4,0-0.8,0-1.3v-4.5c0-0.2,0-0.4,0-0.6
		s0-0.4,0.1-0.7c-0.2,0-0.5,0-0.7,0c-0.2,0-0.5,0-0.7,0v-0.8c0.6,0,1,0,1.3-0.1c0.3-0.1,0.5-0.1,0.6-0.2c0.1-0.1,0.3-0.2,0.3-0.3
		h0.6c0,0.1,0,0.3,0,0.5c0,0.2,0,0.4,0,0.6c0.4-0.3,0.8-0.6,1.3-0.8c0.5-0.2,1-0.3,1.5-0.3c0.6,0,1.2,0.1,1.6,0.4
		c0.4,0.2,0.8,0.6,1,1c0.4-0.4,0.9-0.7,1.5-0.9c0.6-0.3,1.1-0.4,1.7-0.4c1.1,0,1.9,0.3,2.5,1c0.5,0.7,0.8,1.8,0.7,3.4l0,3.7
		c0,0.3,0,0.5,0,0.7s0,0.4-0.1,0.6c0.2,0,0.4,0,0.6,0s0.4,0,0.6,0v0.8h-3.9v-0.6c0.4,0,0.7-0.1,0.8-0.3c0.2-0.2,0.2-0.5,0.3-0.8
		c0-0.4,0-0.8,0-1.3v-2.8c0-1.1-0.2-2-0.5-2.5c-0.4-0.6-0.9-0.8-1.7-0.8c-0.4,0-0.8,0.1-1.2,0.3c-0.4,0.2-0.7,0.4-1,0.7
		c0.1,0.2,0.1,0.4,0.1,0.7c0,0.2,0,0.5,0,0.8c0,0.8,0,1.5,0,2.3c0,0.8,0,1.6,0,2.3c0,0.3,0,0.5,0,0.7c0,0.2,0,0.4-0.1,0.6
		c0.2,0,0.4,0,0.6,0c0.2,0,0.4,0,0.6,0v0.8h-3.9v-0.6c0.4,0,0.7-0.1,0.8-0.3c0.1-0.2,0.2-0.5,0.3-0.8c0-0.4,0-0.8,0-1.3l0-2.8
		c0-1.1-0.1-2-0.5-2.6s-0.9-0.9-1.6-0.8c-0.4,0-0.8,0.1-1.2,0.3c-0.4,0.2-0.7,0.4-1,0.7c0,0.2,0,0.3,0,0.5c0,0.2,0,0.4,0,0.6v5.1
		c0,0.3,0,0.5,0,0.7c0,0.2,0,0.4-0.1,0.6c0.2,0,0.4,0,0.6,0c0.2,0,0.4,0,0.6,0v0.8H149.7z"/>
	<path class="st0" d="M172.2,204.4c-0.9,0-1.7-0.2-2.4-0.6c-0.7-0.4-1.3-1-1.7-1.8c-0.4-0.8-0.6-1.7-0.6-2.8c0-0.9,0.2-1.8,0.6-2.6
		c0.4-0.8,1-1.5,1.7-1.9s1.6-0.7,2.5-0.7c0.5,0,1,0.1,1.5,0.3c0.5,0.2,0.9,0.4,1.2,0.8c0.4,0.4,0.6,0.8,0.8,1.4s0.3,1.2,0.3,1.9
		l-6.8,0.1c0,1,0.1,1.9,0.3,2.6c0.2,0.8,0.6,1.3,1,1.8c0.5,0.4,1.1,0.6,1.8,0.6c0.4,0,0.8-0.1,1.2-0.2s0.8-0.3,1.2-0.6
		c0.4-0.2,0.6-0.5,0.9-0.8l0.5,0.4c-0.3,0.6-0.8,1-1.2,1.3s-1,0.6-1.5,0.7S172.6,204.4,172.2,204.4z M169.5,197.5h4.9
		c0-0.5-0.1-0.9-0.2-1.4c-0.1-0.4-0.4-0.8-0.7-1.1c-0.3-0.3-0.7-0.4-1.2-0.4c-0.7,0-1.4,0.2-1.9,0.7
		C170,195.8,169.7,196.5,169.5,197.5z"/>
	<path class="st0" d="M185.1,204.1v-0.7c0.5,0,0.8-0.1,1-0.3s0.3-0.5,0.3-0.8c0-0.4,0-0.8,0-1.2v-8.5c0-0.3,0-0.5,0-0.8
		c0-0.2,0-0.5,0-0.7c-0.2,0-0.5,0-0.7,0c-0.2,0-0.5,0-0.7,0v-0.9c0.7,0,1.4,0,2.2,0c0.7,0,1.5,0,2.2,0c1.2,0,2.2,0.2,3,0.4
		c0.8,0.3,1.3,0.7,1.7,1.2c0.4,0.5,0.5,1.1,0.5,1.9c0,0.5-0.1,1-0.3,1.6c-0.2,0.5-0.6,1-1.1,1.4c-0.5,0.4-1.3,0.7-2.2,0.9
		c0.3,0.2,0.5,0.4,0.7,0.7c0.2,0.3,0.4,0.6,0.7,1l1.3,2.1c0.2,0.4,0.4,0.7,0.6,1c0.2,0.3,0.4,0.5,0.7,0.7c0.3,0.2,0.6,0.2,1,0.2v0.7
		h-2.4c-0.4-0.3-0.7-0.7-0.9-1c-0.2-0.3-0.5-0.7-0.8-1.2l-1.3-2.1c-0.2-0.3-0.4-0.6-0.6-1c-0.2-0.4-0.4-0.7-0.7-0.9
		c-0.2,0-0.4,0-0.6,0c-0.2,0-0.4,0-0.7,0v3.8c0,0.4,0,0.7,0,0.9c0,0.3,0,0.5,0,0.6c0.2,0,0.3,0,0.5,0c0.2,0,0.3,0,0.5,0
		c0.2,0,0.3,0,0.5,0v0.9H185.1z M189.3,197.2c0.7,0,1.3-0.1,1.9-0.4s1-0.5,1.3-1c0.3-0.5,0.5-1.1,0.5-1.8c0-0.5-0.1-0.9-0.2-1.3
		c-0.1-0.4-0.3-0.7-0.6-0.9c-0.3-0.2-0.6-0.4-1.1-0.6c-0.4-0.1-0.9-0.2-1.5-0.2c-0.5,0-0.8,0.1-1,0.3s-0.3,0.5-0.3,0.8
		c0,0.3,0,0.8,0,1.2v3.8c0.2,0,0.4,0,0.6,0C188.8,197.2,189.1,197.2,189.3,197.2z"/>
	<path class="st0" d="M202.2,204.4c-0.9,0-1.7-0.2-2.4-0.6c-0.7-0.4-1.3-1-1.7-1.8c-0.4-0.8-0.6-1.7-0.6-2.8c0-0.9,0.2-1.8,0.6-2.6
		c0.4-0.8,1-1.5,1.7-1.9s1.6-0.7,2.5-0.7c0.5,0,1,0.1,1.5,0.3c0.5,0.2,0.9,0.4,1.2,0.8c0.4,0.4,0.6,0.8,0.8,1.4s0.3,1.2,0.3,1.9
		l-6.8,0.1c0,1,0.1,1.9,0.3,2.6c0.2,0.8,0.6,1.3,1,1.8c0.5,0.4,1.1,0.6,1.8,0.6c0.4,0,0.8-0.1,1.2-0.2s0.8-0.3,1.2-0.6
		c0.4-0.2,0.6-0.5,0.9-0.8l0.5,0.4c-0.3,0.6-0.8,1-1.2,1.3s-1,0.6-1.5,0.7S202.6,204.4,202.2,204.4z M199.5,197.5h4.9
		c0-0.5-0.1-0.9-0.2-1.4c-0.1-0.4-0.4-0.8-0.7-1.1c-0.3-0.3-0.7-0.4-1.2-0.4c-0.7,0-1.4,0.2-1.9,0.7
		C200,195.8,199.7,196.5,199.5,197.5z"/>
	<path class="st0" d="M212.8,204.4c-0.6,0-1.2-0.1-1.7-0.3c-0.5-0.2-0.9-0.4-1.2-0.6l0.1,0.7h-0.8l-0.1-3.4h0.6c0,0.5,0.2,1,0.4,1.5
		c0.3,0.4,0.6,0.8,1,1c0.4,0.2,0.9,0.4,1.4,0.4c0.3,0,0.7-0.1,1-0.2c0.3-0.1,0.6-0.3,0.8-0.5c0.2-0.2,0.3-0.5,0.3-0.9
		c0-0.4-0.1-0.7-0.3-0.9c-0.2-0.2-0.5-0.5-0.8-0.6c-0.3-0.2-0.7-0.4-1.1-0.5c-0.4-0.2-0.8-0.3-1.2-0.5c-0.4-0.2-0.7-0.4-1.1-0.6
		c-0.3-0.2-0.6-0.5-0.8-0.9c-0.2-0.3-0.3-0.8-0.3-1.3c0-0.3,0.1-0.6,0.2-0.9c0.1-0.3,0.3-0.6,0.5-0.9s0.6-0.5,1-0.7s1-0.3,1.6-0.3
		c0.3,0,0.7,0.1,1.2,0.2c0.4,0.1,0.8,0.3,1.2,0.7l0-0.7h0.8v3.5h-0.6c0-0.5-0.1-0.9-0.3-1.3c-0.2-0.4-0.4-0.8-0.8-1.1
		c-0.3-0.3-0.8-0.4-1.3-0.4c-0.6,0-1,0.2-1.4,0.5s-0.5,0.7-0.5,1c0,0.4,0.1,0.7,0.4,1s0.6,0.5,1,0.7c0.4,0.2,0.8,0.4,1.3,0.6
		c0.5,0.2,1,0.4,1.4,0.7s0.8,0.6,1.1,0.9c0.3,0.4,0.4,0.9,0.4,1.5c0,0.7-0.2,1.2-0.5,1.6c-0.3,0.4-0.7,0.8-1.2,1
		S213.3,204.4,212.8,204.4z"/>
	<path class="st0" d="M223.3,204.4c-0.9,0-1.7-0.2-2.4-0.6c-0.7-0.4-1.3-1-1.7-1.8c-0.4-0.8-0.6-1.6-0.6-2.6c0-1,0.2-2,0.6-2.8
		c0.4-0.8,1-1.5,1.7-2c0.7-0.5,1.5-0.7,2.5-0.7c0.9,0,1.7,0.2,2.4,0.7c0.7,0.4,1.3,1,1.7,1.8s0.7,1.6,0.7,2.6c0,1-0.2,1.9-0.6,2.8
		c-0.4,0.8-1,1.5-1.7,2C225.1,204.1,224.3,204.4,223.3,204.4z M223.5,203.6c0.7,0,1.2-0.2,1.6-0.6s0.7-0.9,0.9-1.5
		c0.2-0.6,0.3-1.3,0.3-2c0-0.6-0.1-1.2-0.2-1.7c-0.1-0.6-0.3-1.1-0.5-1.6s-0.5-0.8-0.9-1.1c-0.4-0.3-0.8-0.4-1.3-0.4
		c-0.7,0-1.2,0.2-1.6,0.6c-0.4,0.4-0.7,0.9-0.9,1.5c-0.2,0.6-0.3,1.3-0.3,2c0,0.8,0.1,1.6,0.3,2.3c0.2,0.7,0.6,1.3,1,1.8
		C222.3,203.4,222.8,203.6,223.5,203.6z"/>
	<path class="st0" d="M230.4,203.5c0.4,0,0.7-0.1,0.8-0.3c0.2-0.2,0.2-0.5,0.3-0.8c0-0.4,0-0.8,0-1.3v-4.5c0-0.2,0-0.4,0-0.6
		c0-0.2,0-0.4,0.1-0.7c-0.2,0-0.5,0-0.7,0c-0.2,0-0.5,0-0.7,0v-0.8h0.6c0.6,0,0.9-0.1,1.1-0.2c0.2-0.1,0.4-0.2,0.5-0.4h0.6
		c0,0.2,0,0.5,0.1,0.8c0,0.3,0,0.7,0,1.2c0.2-0.3,0.5-0.7,0.8-1c0.3-0.3,0.7-0.6,1.1-0.8c0.4-0.2,0.9-0.3,1.3-0.3
		c0.4,0,0.7,0.1,0.9,0.3s0.4,0.5,0.4,0.9c0,0.1,0,0.2-0.1,0.4c-0.1,0.2-0.2,0.3-0.3,0.4c-0.1,0.1-0.3,0.2-0.6,0.2
		c-0.3,0-0.5-0.1-0.7-0.3c-0.2-0.2-0.2-0.5-0.2-0.8c-0.3,0-0.7,0.1-1,0.3c-0.3,0.2-0.7,0.4-0.9,0.8c-0.3,0.3-0.6,0.7-0.8,1.1l0,4.9
		c0,0.3,0,0.5,0,0.7c0,0.2,0,0.4-0.1,0.6c0.2,0,0.4,0,0.6,0c0.2,0,0.4,0,0.6,0v0.8h-3.9V203.5z"/>
	<path class="st0" d="M243.8,204.4c-0.3,0-0.6,0-0.9-0.1c-0.3-0.1-0.6-0.3-0.9-0.5s-0.5-0.6-0.6-1.1c-0.2-0.5-0.2-1.1-0.2-1.9l0-5.7
		l-1.5,0v-0.8c0.3,0,0.7-0.1,1-0.4s0.7-0.6,0.9-1s0.5-0.9,0.6-1.4h0.7v2.8h3.2v0.8l-3.2,0l0,5.5c0,0.6,0,1.1,0.1,1.5
		c0.1,0.4,0.3,0.7,0.5,0.9c0.2,0.2,0.5,0.3,0.8,0.3c0.4,0,0.7-0.1,1-0.3c0.3-0.2,0.6-0.5,0.8-0.9l0.5,0.4c-0.3,0.4-0.6,0.8-0.8,1
		c-0.3,0.3-0.5,0.4-0.8,0.6s-0.5,0.2-0.7,0.2C244.1,204.4,243.9,204.4,243.8,204.4z"/>
</g>
</svg>
